# xmcd CD database file
# Copyright (C) 1993-1998 Ti Kan
#
# Track frame offsets:
#	150
#	13913
#	41763
#	57375
#	70675
#	82750
#	92485
#	115463
#	133963
#	152513
#	161488
#	174050
#	190475
#	211288
#	229400
#	240013
#	252425
#	264225
#	286113
#
# Disc length: 4470 seconds
#
# Revision: 1
# Processed by: cddbd v1.4b41PL1 Copyright (c) Steve Scherf et al.
# Submitted via: CDValet v3.31 - Copyright (c) 1997 Greg Leichner
#
DISCID=f9117413
DTITLE=Memphis Slim - Blue This Evening
DYEAR=1900
DGENRE=
TTITLE0=Pinetop's Blues
TTITLE1=Blue This Evening
TTITLE2=Caught The Old Coon
TTITLE3=We're Just Two Of The Same Old Kind
TTITLE4=Don't Think You're Smart
TTITLE5=I'm Going To Kansas City
TTITLE6=Got A Little Old Mama
TTITLE7=Rock Me Baby
TTITLE8=In The Evening
TTITLE9=Memphis Slim U.S.A.
TTITLE10=Chicago Boogie
TTITLE11=Sad And Lonesome
TTITLE12=Memphis Woman
TTITLE13=Bertha Mae
TTITLE14=Ain't Nobody's Business
TTITLE15=I Love You More And More
TTITLE16=Frisco Bay Blues
TTITLE17=Slow And Easy
TTITLE18=I Believe I'll Settle Down, Darling I Miss You, Roll N
TTITLE18=' Tumble
EXTD=Black Lion BLCD760155
EXTT0=
EXTT1=
EXTT2=
EXTT3=
EXTT4=
EXTT5=
EXTT6=
EXTT7=
EXTT8=
EXTT9=
EXTT10=
EXTT11=
EXTT12=
EXTT13=
EXTT14=
EXTT15=
EXTT16=
EXTT17=
EXTT18=
PLAYORDER=
